Coordinates
version=1
nRows=5
nColumns=40
inDegrees=yes

Units are S.I. units (second, meters, Newtons, ...)
Angles are in degrees.

endheader
time	pelvis_tilt	pelvis_list	pelvis_rotation	pelvis_tx	pelvis_ty	pelvis_tz	hip_flexion_r	hip_adduction_r	hip_rotation_r	knee_angle_r	knee_angle_r_beta	ankle_angle_r	subtalar_angle_r	mtp_angle_r	hip_flexion_l	hip_adduction_l	hip_rotation_l	knee_angle_l	knee_angle_l_beta	ankle_angle_l	subtalar_angle_l	mtp_angle_l	lumbar_extension	lumbar_bending	lumbar_rotation	arm_flex_r	arm_add_r	arm_rot_r	elbow_flex_r	pro_sup_r	wrist_flex_r	wrist_dev_r	arm_flex_l	arm_add_l	arm_rot_l	elbow_flex_l	pro_sup_l	wrist_flex_l	wrist_dev_l
     17.26250000	     -4.58814152	     -5.32896402	      3.74063693	      0.96630608	      0.93136605	      0.50521880	     10.74977687	      4.36010681	    -15.65215455	     12.85093404	     12.85093404	      9.07183555	      0.24529367	     -5.83161813	     35.16507951	     -9.45387525	      3.16725246	     44.57070124	     44.57070124	     10.14596172	    -18.04132867	     12.61349475	    -11.01662244	      5.57980459	      2.59836265	     18.30634956	    -18.44662087	      1.92951373	     81.00945247	     44.34800516	      0.00000000	      0.00000000	      1.33248838	     -7.65792290	     -8.36406901	     29.61419754	     46.75905609	      0.00000000	      0.00000000
     17.27471429	     -4.70107418	     -5.22066036	      3.92180208	      0.96540079	      0.93136105	      0.50525817	     10.27931265	      4.30999492	    -15.66640998	     12.59847546	     12.59847546	      9.32996469	      0.23770961	     -5.83104362	     35.07823707	     -9.05772756	      3.04785124	     40.35232308	     40.35232308	     10.22653754	    -17.48646330	     12.80916945	    -10.95509596	      5.45522776	      2.44111194	     20.23761206	    -18.20986826	      1.75416763	     83.16179390	     44.30246861	      0.00000000	      0.00000000	      0.49369960	     -7.77318267	     -8.39601482	     28.79148454	     46.74425382	      0.00000000	      0.00000000
     17.28692857	     -4.83480610	     -5.25688375	      4.12551573	      0.96461838	      0.93108120	      0.50511897	      9.81830814	      4.36533471	    -16.01487747	     12.34049683	     12.34049683	      9.68655164	      0.66461693	     -5.74904704	     34.90998821	     -8.80632207	      2.93530883	     36.02045303	     36.02045303	      9.58454628	    -16.80533778	     11.03204229	    -10.88143609	      5.59500747	      2.80212645	     21.37014542	    -19.04102073	      2.32385360	     87.48481873	     44.20394353	      0.00000000	      0.00000000	      0.28748961	     -7.64080450	     -8.59605646	     27.20269011	     46.75143723	      0.00000000	      0.00000000
     17.29914286	     -4.95503089	     -5.23437637	      4.23979923	      0.96389262	      0.93083377	      0.50511102	      9.35593614	      4.40061103	    -15.99801042	     12.10214377	     12.10214377	      9.94235901	      0.76077371	     -5.75987903	     34.67409473	     -8.52961345	      2.80901128	     31.89874880	     31.89874880	      9.69475264	    -15.49550031	     11.10836975	    -10.83294090	      5.53103370	      2.68185291	     23.37750349	    -18.68723125	      2.12280817	     89.55516502	     44.16660548	      0.00000000	      0.00000000	     -0.53588446	     -7.71687444	     -8.61145419	     26.48556915	     46.73461812	      0.00000000	      0.00000000
     17.31135714	     -5.07780108	     -5.23124892	      4.34267063	      0.96329640	      0.93050143	      0.50499122	      8.87454128	      4.44401386	    -16.09301333	     11.84170812	     11.84170812	     10.21731554	      0.96986703	     -5.79268851	     34.41280985	     -8.30946304	      2.50997229	     27.98505722	     27.98505722	      9.73151888	    -13.86323975	     11.18329482	    -10.71494930	      5.52239703	      2.63918496	     25.24050417	    -18.51901469	      2.19678499	     91.76967982	     44.11277781	      0.00000000	      0.00000000	     -1.29030960	     -7.78068227	     -8.62211324	     25.84357888	     46.72098235	      0.00000000	      0.00000000
